<svg width="20" height="20" viewBox="0 0 20 20" fill="none" xmlns="http://www.w3.org/2000/svg">
<path fill-rule="evenodd" clip-rule="evenodd" d="M14.1413 14.9977C12.8208 16.1219 11.1092 16.8003 9.23903 16.8003C5.06008 16.8003 1.67236 13.4126 1.67236 9.23366C1.67236 5.0547 5.06008 1.66699 9.23903 1.66699C13.418 1.66699 16.8057 5.0547 16.8057 9.23366C16.8057 11.0925 16.1354 12.7948 15.0234 14.112L18.6554 17.744L17.7715 18.6279L14.1413 14.9977ZM15.5557 9.23366C15.5557 12.7223 12.7276 15.5503 9.23903 15.5503C5.75043 15.5503 2.92236 12.7223 2.92236 9.23366C2.92236 5.74506 5.75043 2.91699 9.23903 2.91699C12.7276 2.91699 15.5557 5.74506 15.5557 9.23366Z" fill="black" fill-opacity="0.7"/>
</svg>
